<svg width="262" height="363" viewBox="0 0 262 363" fill="none" xmlns="http://www.w3.org/2000/svg">
<path opacity="0.4" d="M131.178 316.258C202.433 315.77 259.806 258.425 259.324 188.174C258.843 117.923 200.69 61.3698 129.435 61.8579C58.1808 62.346 0.80779 119.691 1.28904 189.942C1.77028 260.192 59.9236 316.746 131.178 316.258Z" fill="#B3E8FF"/>
<path opacity="0.4" d="M133.92 291.44C192.549 291.039 239.755 243.855 239.359 186.052C238.963 128.25 191.115 81.7169 132.487 82.1185C73.8582 82.5201 26.6516 129.704 27.0476 187.507C27.4436 245.309 75.2922 291.842 133.92 291.44Z" fill="#B3E8FF"/>
<path opacity="0.4" d="M15.9056 89.8709C21.1369 89.8351 25.349 85.6251 25.3137 80.4678C25.2783 75.3104 21.0089 71.1586 15.7776 71.1944C10.5463 71.2302 6.33418 75.4402 6.36951 80.5975C6.40484 85.7549 10.6743 89.9067 15.9056 89.8709Z" fill="#B3E8FF"/>
<path opacity="0.4" d="M16.9149 60.6136C19.8648 60.5934 22.24 58.2194 22.2201 55.311C22.2001 52.4027 19.7927 50.0614 16.8428 50.0816C13.8929 50.1018 11.5177 52.4758 11.5377 55.3842C11.5576 58.2925 13.9651 60.6338 16.9149 60.6136Z" fill="#B3E8FF"/>
<path opacity="0.5" d="M185.025 44.224L73.6139 44.9872C58.6458 45.0897 46.5937 57.1361 46.6948 71.8934L48.501 335.569C48.6021 350.326 60.8182 362.206 75.7863 362.104L187.197 361.34C202.166 361.238 214.218 349.192 214.117 334.434L212.31 70.7589C212.209 56.0015 199.993 44.1214 185.025 44.224Z" fill="#C2CED3"/>
<path d="M186.803 35.8465L71.3415 36.6374C57.9346 36.7293 47.1396 47.519 47.2302 60.7371L49.0536 326.913C49.1441 340.131 60.086 350.772 73.4928 350.68L188.955 349.889C202.361 349.797 213.157 339.007 213.066 325.789L211.243 59.6135C211.152 46.3955 200.21 35.7546 186.803 35.8465Z" fill="#1A2536"/>
<path d="M186.655 36.9739L70.5144 37.7695C66.8026 37.7893 63.1441 38.6428 59.8166 40.2652C56.4892 41.8876 53.5803 44.2361 51.311 47.1326C55.5774 43.8225 60.8411 42.0092 66.2695 41.9794L182.414 41.1838C188.872 41.1209 195.09 43.5894 199.7 48.0463C204.311 52.5031 206.937 58.5835 207.001 64.9499L208.824 331.131C208.865 336.461 207.084 341.649 203.769 345.859C206.684 343.613 209.038 340.737 210.65 337.453C212.261 334.169 213.087 330.564 213.064 326.916L211.241 60.7353C211.209 57.5832 210.548 54.4682 209.296 51.5681C208.043 48.6681 206.223 46.0398 203.94 43.8334C201.657 41.6269 198.956 39.8855 195.99 38.7085C193.024 37.5316 189.852 36.9421 186.655 36.9739V36.9739Z" fill="#1A2536"/>
<path d="M188.968 351.76L73.5058 352.55C66.5691 352.591 59.8999 349.917 54.9605 345.116C50.0211 340.315 47.2147 333.779 47.1565 326.94L45.333 60.7497C45.2937 53.9083 48.0086 47.3304 52.8822 42.4592C57.7557 37.5881 64.3898 34.8215 71.3288 34.7665L186.791 33.9755C193.73 33.9354 200.401 36.6109 205.341 41.4148C210.281 46.2188 213.086 52.7589 213.14 59.6002L213.552 119.728L209.757 119.754L209.345 59.6262C209.299 53.7767 206.901 48.1847 202.677 44.0772C198.454 39.9696 192.749 37.6821 186.816 37.7166L71.3544 38.5076C65.4214 38.5544 59.749 40.9198 55.582 45.0848C51.415 49.2498 49.0937 54.8742 49.1275 60.7237L50.951 326.914C50.9986 332.763 53.3973 338.353 57.6208 342.46C61.8443 346.566 67.5479 348.853 73.4802 348.819L188.942 348.028C194.874 347.981 200.546 345.616 204.713 341.452C208.88 337.288 211.202 331.665 211.169 325.816L209.956 148.785L213.751 148.759L214.963 325.79C214.999 332.629 212.282 339.204 207.409 344.072C202.536 348.94 195.904 351.705 188.968 351.76V351.76Z" fill="#213346"/>
<path d="M213.692 140.169L209.897 140.195L209.924 144.041L213.718 144.015L213.692 140.169Z" fill="#213346"/>
<path d="M213.594 125.869L209.799 125.895L209.873 136.684L213.668 136.658L213.594 125.869Z" fill="#213346"/>
<path d="M188.322 47.7144L69.9809 48.5251C63.5787 48.5689 58.4238 53.7214 58.467 60.0334L60.2862 325.598C60.3295 331.91 65.5545 336.991 71.9567 336.947L190.298 336.136C196.7 336.093 201.855 330.94 201.812 324.628L199.992 59.0639C199.949 52.7519 194.724 47.6705 188.322 47.7144Z" fill="white"/>
<path d="M187.681 48.3777L69.3167 49.1886C67.2089 49.2009 65.1443 49.7801 63.3454 50.8637C61.5466 51.9474 60.0816 53.4944 59.1085 55.338C60.7669 54.4582 62.6188 53.9927 64.5019 53.9823L182.843 53.1716C185.917 53.1506 188.874 54.3345 191.062 56.4629C193.251 58.5914 194.492 61.49 194.513 64.5212L196.333 330.128C196.348 331.986 195.901 333.819 195.032 335.468C196.888 334.482 198.437 333.016 199.512 331.227C200.586 329.438 201.145 327.394 201.128 325.315L199.309 59.7276C199.288 56.7037 198.053 53.8114 195.874 51.6841C193.694 49.5568 190.748 48.3679 187.681 48.3777V48.3777Z" fill="#1A2536"/>
<path d="M190.307 337.54L71.9664 338.35C68.5157 338.37 65.1982 337.04 62.7417 334.651C60.2853 332.262 58.8905 329.01 58.8634 325.608L57.0442 60.0425C57.0259 56.6412 58.3766 53.3713 60.7999 50.95C63.2233 48.5287 66.5216 47.1535 69.9714 47.1262L188.312 46.3155C191.763 46.2956 195.081 47.626 197.537 50.0149C199.993 52.4039 201.388 55.6562 201.415 59.0582L203.235 324.619C203.254 328.021 201.904 331.292 199.48 333.714C197.057 336.136 193.758 337.512 190.307 337.54ZM69.9906 49.932C67.2948 49.9542 64.7176 51.0294 62.8242 52.9219C60.9308 54.8144 59.8756 57.3698 59.8901 60.0277L61.7093 325.588C61.7312 328.246 62.8213 330.787 64.7405 332.653C66.6596 334.519 69.2513 335.559 71.9472 335.545L190.288 334.734C192.984 334.713 195.562 333.638 197.456 331.745C199.35 329.853 200.404 327.296 200.389 324.638L198.569 59.073C198.547 56.4156 197.457 53.8754 195.538 52.0097C193.619 50.1441 191.027 49.1053 188.332 49.1213L69.9906 49.932Z" fill="#213346"/>
<path d="M95.9704 18.8093C97.6157 18.798 98.9404 17.4741 98.9292 15.8523C98.9181 14.2305 97.5754 12.9249 95.9302 12.9361C94.285 12.9474 92.9603 14.2713 92.9714 15.8931C92.9825 17.515 94.3252 18.8206 95.9704 18.8093Z" fill="#FFC62A"/>
<path d="M198.343 22.5472C202.474 22.5189 205.8 19.1939 205.772 15.1206C205.745 11.0472 202.373 7.76812 198.242 7.79642C194.111 7.82472 190.785 11.1497 190.813 15.223C190.841 19.2963 194.212 22.5755 198.343 22.5472Z" fill="#B3E8FF"/>
<path d="M210.427 36.814C212.073 36.8028 213.397 35.4781 213.386 33.8554C213.375 32.2327 212.032 30.9263 210.387 30.9376C208.742 30.9489 207.417 32.2735 207.428 33.8962C207.439 35.519 208.782 36.8253 210.427 36.814Z" fill="#FFC62A"/>
<path d="M217.728 10.5985C219.373 10.5873 220.698 9.26301 220.687 7.64073C220.676 6.01845 219.333 4.71246 217.688 4.72373C216.042 4.735 214.718 6.05926 214.729 7.68154C214.74 9.30382 216.083 10.6098 217.728 10.5985Z" fill="#FF28B3"/>
<path d="M74.3004 27.4832C78.4314 27.4549 81.7576 24.1304 81.7297 20.0578C81.7018 15.9852 78.3304 12.7066 74.1994 12.7349C70.0684 12.7632 66.7422 16.0877 66.7701 20.1603C66.798 24.2329 70.1694 27.5115 74.3004 27.4832Z" fill="#B3E8FF"/>
<path d="M81.6459 7.09236C83.2911 7.08109 84.6158 5.75646 84.6047 4.13373C84.5936 2.511 83.2508 1.20465 81.6056 1.21592C79.9604 1.22719 78.6357 2.55181 78.6468 4.17455C78.658 5.79728 80.0007 7.10363 81.6459 7.09236Z" fill="#FF28B3"/>
<path d="M53.1844 112.867C52.807 112.87 52.444 112.724 52.1754 112.463C51.9067 112.202 51.7543 111.846 51.7518 111.474L51.546 81.439C51.5435 81.0669 51.691 80.7091 51.956 80.4442C52.2211 80.1792 52.582 80.029 52.9594 80.0264C53.3368 80.0238 53.6998 80.1691 53.9685 80.4304C54.2371 80.6916 54.3895 81.0474 54.392 81.4195L54.5978 111.454C54.6003 111.826 54.4529 112.184 54.1878 112.449C53.9227 112.714 53.5618 112.864 53.1844 112.867V112.867Z" fill="white"/>
<path d="M53.2558 123.276C52.8784 123.279 52.5154 123.133 52.2467 122.872C51.978 122.61 51.8257 122.254 51.8231 121.882L51.8031 118.967C51.8006 118.595 51.9481 118.237 52.2132 117.972C52.4782 117.707 52.8392 117.556 53.2166 117.554C53.5941 117.551 53.957 117.697 54.2257 117.958C54.4944 118.219 54.6468 118.575 54.6493 118.948L54.6693 121.863C54.6719 122.235 54.5244 122.593 54.2593 122.858C53.9942 123.123 53.6333 123.273 53.2558 123.276V123.276Z" fill="white"/>
<path d="M90.5157 54.1973L90.5429 58.1677C90.5513 59.38 90.8016 60.5788 91.2799 61.6956C91.7581 62.8124 92.4547 63.8253 93.33 64.6766C94.2053 65.5279 95.2421 66.2008 96.3813 66.6569C97.5204 67.1131 98.7396 67.3435 99.9691 67.3351L164.67 66.8919C165.901 66.8859 167.119 66.6406 168.254 66.17C169.389 65.6993 170.419 65.0126 171.284 64.1492C172.15 63.2858 172.834 62.2625 173.298 61.138C173.762 60.0136 173.997 58.8099 173.989 57.596L173.962 53.6256" fill="#1A2536"/>
<path d="M89.7657 45.8125L89.7962 50.2643C89.8356 56.0068 94.0604 60.6357 99.2304 60.6003L163.936 60.157C169.106 60.1216 173.267 55.4166 173.228 49.6928L173.197 45.241" fill="#1A2536"/>
<path d="M164.374 61.1085L99.6686 61.5518C96.8088 61.5689 94.0592 60.4665 92.0233 58.4866C89.9875 56.5067 88.8318 53.8111 88.8099 50.9915L88.7828 47.0259L91.6286 47.0064L91.6558 50.972C91.6725 53.0474 92.5235 55.0314 94.0221 56.4888C95.5206 57.9461 97.5444 58.7579 99.6494 58.7459L164.355 58.3027C166.46 58.2858 168.472 57.4464 169.951 55.9686C171.429 54.4909 172.253 52.4954 172.241 50.42L172.214 46.4543L175.06 46.4348L175.087 50.4005C175.104 53.2201 173.985 55.9313 171.977 57.9389C169.968 59.9465 167.234 61.0865 164.374 61.1085V61.1085Z" fill="#213346"/>
<path d="M89.3199 211.295L169.82 210.744L169.829 211.992C169.84 213.664 169.178 215.272 167.987 216.462C166.796 217.653 165.174 218.328 163.478 218.34L95.7654 218.804C94.0697 218.815 92.4389 218.162 91.2317 216.988C90.0246 215.814 89.34 214.216 89.3285 212.544L89.3199 211.286L89.3199 211.295Z" fill="#1A2536"/>
<path d="M164.664 156.054L92.1325 156.551C89.492 156.569 87.3659 158.694 87.3837 161.297L87.6998 207.438C87.7177 210.042 89.8727 212.137 92.5132 212.119L165.045 211.622C167.685 211.604 169.812 209.479 169.794 206.876L169.478 160.735C169.46 158.132 167.305 156.036 164.664 156.054Z" fill="#FFC826"/>
<path d="M128.748 196.288C127.293 196.304 125.85 196.034 124.501 195.496C123.152 194.958 121.925 194.161 120.891 193.153L93.892 166.898L95.9837 164.798L122.982 191.053C124.53 192.557 126.565 191.964 128.738 191.949C130.91 191.934 132.953 192.49 134.48 190.974L161.097 164.352L163.198 166.395L136.562 193.045C135.542 194.068 134.326 194.881 132.984 195.438C131.643 195.995 130.203 196.284 128.748 196.288Z" fill="#FF9905"/>
<path opacity="0.6" d="M93.4136 183.583C92.9103 183.586 92.4263 183.392 92.0681 183.044C91.7099 182.696 91.5067 182.221 91.5033 181.725L91.4511 174.106C91.4477 173.61 91.6444 173.133 91.9978 172.779C92.3512 172.426 92.8325 172.226 93.3357 172.222C93.839 172.219 94.3229 172.413 94.6812 172.761C95.0394 173.11 95.2426 173.584 95.246 174.08L95.2982 181.699C95.3016 182.195 95.1049 182.672 94.7515 183.026C94.3981 183.379 93.9168 183.579 93.4136 183.583Z" fill="white"/>
<path opacity="0.6" d="M93.4586 190.173C92.9554 190.176 92.4714 189.982 92.1132 189.634C91.7549 189.285 91.5518 188.811 91.5484 188.315L91.5457 187.917C91.5423 187.421 91.7389 186.943 92.0923 186.59C92.4458 186.237 92.927 186.036 93.4303 186.033C93.9335 186.029 94.4175 186.223 94.7757 186.572C95.134 186.92 95.3371 187.395 95.3405 187.891L95.3433 188.289C95.3467 188.785 95.15 189.262 94.7966 189.616C94.4431 189.969 93.9619 190.169 93.4586 190.173Z" fill="white"/>
<path d="M128.728 193.38C127.28 193.393 125.842 193.124 124.5 192.586C123.158 192.049 121.937 191.254 120.909 190.249L93.91 163.989L95.9075 161.992L122.906 188.247C123.671 188.992 124.577 189.581 125.573 189.98C126.568 190.379 127.634 190.581 128.709 190.573C129.784 190.566 130.847 190.35 131.837 189.937C132.827 189.524 133.725 188.923 134.479 188.168L161.116 161.545L163.141 163.514L136.504 190.142C135.489 191.161 134.28 191.973 132.945 192.528C131.61 193.084 130.177 193.373 128.728 193.38V193.38Z" fill="#213346"/>
<path d="M115.845 183.148L88.6951 207.946L90.629 210.004L117.779 185.206L115.845 183.148Z" fill="#213346"/>
<path d="M142.695 182.95L140.79 185.035L168.277 209.459L170.182 207.374L142.695 182.95Z" fill="#213346"/>
<path d="M199.126 235.932L78.0866 236.761L78.1384 244.323L199.178 243.494L199.126 235.932Z" fill="#1A2536"/>
<path d="M199.26 255.489L78.2206 256.318L78.2724 263.879L199.312 263.05L199.26 255.489Z" fill="#1A2536"/>
<path d="M199.442 281.934L78.4018 282.763L78.4536 290.324L199.493 289.495L199.442 281.934Z" fill="#1A2536"/>
<path d="M259.003 268.028L76.8865 269.276L76.9923 284.727L259.109 283.479L259.003 268.028Z" fill="#EDE9E4"/>
<path d="M237.691 247.888L76.7474 248.991L76.8151 258.862L237.759 257.759L237.691 247.888Z" fill="#EDE9E4"/>
<path d="M226.429 227.682L76.6085 228.708L76.6761 238.58L226.497 237.554L226.429 227.682Z" fill="#EDE9E4"/>
<path d="M226.437 228.833L76.6164 229.859L76.6328 232.255L226.454 231.229L226.437 228.833Z" fill="white"/>
<path d="M237.703 249.613L75.142 250.727L75.154 252.477L237.715 251.363L237.703 249.613Z" fill="white"/>
<path d="M259.876 268.022L76.8865 269.276L76.9197 274.12L259.909 272.867L259.876 268.022Z" fill="white"/>
<path d="M228.406 239.982L74.7957 241.034L74.6985 226.852L228.309 225.799L228.406 239.982ZM78.5646 237.267L224.586 236.267L224.54 229.566L78.5187 230.567L78.5646 237.267Z" fill="#213346"/>
<path d="M239.673 260.187L74.9346 261.316L74.8375 247.133L239.575 246.004L239.673 260.187ZM78.7035 257.549L235.853 256.472L235.807 249.771L78.6576 250.848L78.7035 257.549Z" fill="#213346"/>
<path d="M261.025 286.225L75.0948 287.499L74.9572 267.419L260.888 266.145L261.025 286.225ZM78.8636 283.732L257.205 282.51L257.119 269.912L78.7773 271.134L78.8636 283.732Z" fill="#213346"/>
<path d="M198.276 111.832L77.2366 112.662L77.2884 120.223L198.328 119.394L198.276 111.832Z" fill="#1A2536"/>
<path d="M225.579 103.576L75.7584 104.603L75.826 114.475L225.647 113.449L225.579 103.576Z" fill="#EDE9E4"/>
<path d="M225.587 104.732L75.7663 105.759L75.7827 108.154L225.604 107.127L225.587 104.732Z" fill="white"/>
<path d="M227.556 115.877L73.9455 116.93L73.8483 102.751L227.459 101.699L227.556 115.877ZM77.7143 113.163L223.736 112.162L223.69 105.466L77.6685 106.466L77.7143 113.163Z" fill="#213346"/>
<path d="M142.521 51.2383L119.645 51.395C119.141 51.3985 118.658 51.2046 118.299 50.8561C117.941 50.5075 117.738 50.0329 117.735 49.5365C117.731 49.0402 117.928 48.5628 118.281 48.2094C118.635 47.856 119.116 47.6555 119.619 47.652L142.495 47.4953C142.998 47.4919 143.482 47.6858 143.84 48.0343C144.198 48.3828 144.402 48.8575 144.405 49.3538C144.408 49.8502 144.212 50.3276 143.858 50.681C143.505 51.0344 143.024 51.2349 142.521 51.2383Z" fill="#213346"/>
<path d="M150.447 51.1841L150.337 51.1849C149.834 51.1883 149.35 50.9944 148.992 50.6459C148.634 50.2973 148.431 49.8226 148.427 49.3262C148.424 48.8298 148.62 48.3524 148.974 47.999C149.327 47.6455 149.809 47.445 150.312 47.4416L150.421 47.4408C150.924 47.4374 151.408 47.6313 151.766 47.9798C152.125 48.3284 152.328 48.8031 152.331 49.2995C152.334 49.7959 152.138 50.2733 151.784 50.6267C151.431 50.9802 150.95 51.1807 150.447 51.1841Z" fill="#213346"/>
<path d="M163.376 213.033L93.6185 213.511C91.6058 213.525 89.6701 212.749 88.2373 211.356C86.8045 209.963 85.9919 208.065 85.9783 206.081L85.681 162.675C85.6674 160.691 86.4539 158.782 87.8675 157.369C89.2811 155.956 91.206 155.155 93.2187 155.141L162.976 154.663C164.988 154.649 166.924 155.424 168.357 156.818C169.79 158.211 170.602 160.109 170.616 162.093L170.913 205.499C170.927 207.483 170.14 209.392 168.727 210.805C167.313 212.218 165.388 213.019 163.376 213.033ZM93.2379 157.947C91.98 157.955 90.7769 158.456 89.8934 159.339C89.0099 160.222 88.5183 161.415 88.5268 162.655L88.8242 206.061C88.8327 207.301 89.3405 208.487 90.2361 209.358C91.1316 210.229 92.3414 210.714 93.5993 210.705L163.356 210.227C164.614 210.218 165.817 209.718 166.701 208.834C167.584 207.951 168.076 206.758 168.067 205.518L167.77 162.113C167.762 160.872 167.254 159.686 166.358 158.815C165.463 157.945 164.253 157.46 162.995 157.469L93.2379 157.947Z" fill="#213346"/>
<path d="M92.2415 167.629C99.2567 167.581 104.905 161.935 104.858 155.018C104.81 148.102 99.0851 142.534 92.07 142.582C85.0548 142.63 79.4063 148.276 79.4536 155.193C79.501 162.109 85.2264 167.677 92.2415 167.629Z" fill="#FF2457"/>
<path d="M92.2512 169.032C89.4571 169.053 86.7199 168.255 84.3859 166.741C82.0518 165.227 80.2257 163.065 79.1386 160.527C78.0515 157.99 77.7522 155.191 78.2785 152.485C78.8049 149.78 80.1333 147.289 82.0956 145.327C84.058 143.366 86.5662 142.022 89.303 141.466C92.0397 140.91 94.8821 141.167 97.4705 142.204C100.059 143.241 102.277 145.012 103.845 147.292C105.412 149.572 106.258 152.259 106.276 155.014C106.296 158.705 104.831 162.253 102.202 164.881C99.5732 167.509 95.9946 169.002 92.2512 169.032ZM92.0796 143.991C89.8486 144.005 87.6719 144.671 85.8248 145.905C83.9777 147.139 82.5431 148.886 81.7026 150.924C80.8621 152.961 80.6534 155.199 81.1029 157.353C81.5523 159.508 82.6398 161.482 84.2277 163.027C85.8155 164.572 87.8326 165.618 90.0236 166.032C92.2146 166.447 94.4812 166.211 96.5367 165.356C98.5922 164.5 100.344 163.063 101.571 161.225C102.798 159.388 103.445 157.233 103.43 155.034C103.409 152.085 102.202 149.266 100.073 147.194C97.9453 145.123 95.0703 143.969 92.0796 143.986L92.0796 143.991Z" fill="#213346"/>
<path d="M89.8749 151.746C89.8683 151.602 89.9009 151.458 89.9692 151.33C90.0375 151.202 90.1391 151.095 90.2636 151.018L92.0945 149.603C92.2109 149.502 92.3605 149.446 92.5156 149.446C92.737 149.444 92.9539 149.507 93.1382 149.628C93.224 149.674 93.2958 149.741 93.3465 149.823C93.3971 149.905 93.4245 149.998 93.426 150.094L93.4946 160.097C93.4947 160.196 93.4666 160.292 93.4134 160.375C93.3602 160.458 93.2842 160.525 93.1942 160.567C92.975 160.681 92.7314 160.741 92.4838 160.742C92.2363 160.744 91.9919 160.687 91.7712 160.577C91.682 160.535 91.6067 160.469 91.554 160.386C91.5014 160.304 91.4736 160.209 91.4739 160.111L91.4176 151.899L90.9467 152.398C90.886 152.45 90.815 152.489 90.7383 152.512C90.6616 152.535 90.5808 152.542 90.5012 152.532C90.4216 152.523 90.3449 152.497 90.276 152.456C90.2072 152.415 90.1478 152.361 90.1016 152.296C89.9674 152.142 89.8878 151.949 89.8749 151.746V151.746Z" fill="white"/>
<path opacity="0.5" d="M83.6634 151.372C83.5948 151.372 83.5269 151.358 83.4639 151.331C83.4069 151.306 83.3556 151.27 83.3129 151.225C83.2701 151.18 83.2368 151.127 83.2148 151.069C83.1928 151.012 83.1826 150.95 83.1847 150.889C83.1868 150.827 83.2013 150.767 83.2272 150.711C83.7496 149.517 84.5632 148.469 85.5954 147.66C86.6277 146.851 87.8467 146.305 89.1441 146.073C89.2697 146.048 89.4003 146.073 89.5071 146.143C89.6139 146.213 89.6881 146.321 89.7135 146.445C89.7389 146.569 89.7133 146.698 89.6424 146.803C89.5715 146.909 89.4611 146.982 89.3355 147.007C88.1835 147.205 87.1001 147.684 86.1843 148.401C85.2686 149.118 84.5497 150.05 84.0933 151.112C84.0537 151.19 83.9924 151.257 83.9163 151.303C83.8403 151.349 83.7526 151.373 83.6634 151.372Z" fill="white"/>
<path opacity="0.5" d="M82.8275 154.695C82.7017 154.696 82.5807 154.647 82.4912 154.56C82.4016 154.473 82.3508 154.354 82.35 154.23C82.3854 153.556 82.497 152.889 82.6826 152.239C82.7158 152.119 82.7959 152.017 82.9053 151.955C83.0148 151.894 83.1446 151.877 83.2662 151.91C83.3879 151.943 83.4913 152.022 83.5539 152.129C83.6165 152.237 83.633 152.366 83.5999 152.485C83.4359 153.062 83.335 153.654 83.2989 154.252C83.2924 154.371 83.24 154.483 83.1524 154.566C83.0648 154.648 82.9485 154.694 82.8275 154.695V154.695Z" fill="white"/>
<path d="M45.5115 86.1102C45.0083 86.1137 44.5244 85.9199 44.1662 85.5716C43.808 85.2232 43.6049 84.7488 43.6015 84.2527L43.5246 73.0293C43.5212 72.5332 43.7178 72.056 44.0712 71.7028C44.4246 71.3495 44.9058 71.1491 45.409 71.1457C45.9121 71.1422 46.396 71.336 46.7542 71.6844C47.1124 72.0327 47.3156 72.5072 47.319 73.0033L47.3959 84.2267C47.3993 84.7228 47.2026 85.1999 46.8492 85.5532C46.4959 85.9064 46.0147 86.1068 45.5115 86.1102Z" fill="#213346"/>
<path d="M45.7021 106.334C45.1989 106.338 44.715 106.144 44.3567 105.796C43.9985 105.447 43.7954 104.973 43.792 104.477L43.7151 93.2534C43.7117 92.7573 43.9083 92.2801 44.2617 91.9269C44.6151 91.5736 45.0964 91.3733 45.5996 91.3698C46.1028 91.3664 46.5867 91.5601 46.9449 91.9085C47.3031 92.2569 47.5063 92.7313 47.5097 93.2274L47.5866 104.451C47.59 104.947 47.3933 105.424 47.0399 105.777C46.6865 106.131 46.2053 106.331 45.7021 106.334Z" fill="#213346"/>
</svg>
